<?xml version="1.0" encoding="utf-8"?>
<!-- Generator: Adobe Illustrator 27.8.1, SVG Export Plug-In . SVG Version: 6.00 Build 0)  -->
<svg version="1.1" id="Layer_1" xmlns="http://www.w3.org/2000/svg" xmlns:xlink="http://www.w3.org/1999/xlink" x="0px" y="0px"
	 viewBox="0 0 255 279.4" style="enable-background:new 0 0 255 279.4;" xml:space="preserve">
<style type="text/css">
	.st0{fill:#2D80C3;}
	.st1{fill:#FFFFFF;}
	.st2{fill:#2F80C3;}
	.st3{fill:#30343F;}
</style>
<g>
	<g>
		<circle class="st0" cx="128" cy="151.7" r="116.2"/>
		<path class="st1" d="M92.6,45.1c-1.7,6.2,0,20.4,4.1,26.4c3.6,5.3,8.6,4.7,11.6-0.4c3-5.1,6.1-7.1,8.3-4.1
			c5.4,7.2,9.8,7.4,19.3,7.7c9.9,0.3,6.7,9.5,3,12.9c-4.8,2.5-10.3,2.2-12.3,6.4c-2.1,4.1-7.5,20.7-14.9,26.1
			c-7.5,5.4-14,1.7-18.1,1.9c-5,0.2-10.2,1.6-10.9,7.5c-0.8,6.5,6.8,11.4,14.7,15.2c7.9,3.7,15.9,8.9,17.1,16.3
			c8.3-3.7,14.5-4.3,23.2-2.6c8.8,1.7,13,5.1,16.7,10.3c4,5.7,3.4,16,12.4,14.1c8.9-1.9,15.4-2.8,18.9,0.9s6.1,16.7-7.7,33.2
			c-10.7,12.8-27.5,16.1-33,20.8c-6,5.1-20,20.2-22.7,25.2s-17,3.5-17,3.5s15-15.9,14.6-37.4c-0.3-15.6-11.4-23.8-17-31.6
			c-10.5-14.4,3.5-12.6,6.2-18.7c2.1-4.9-0.2-13.8-9.7-19c-16.2-8.8-35-3.4-45.6-22c-12-21.1-7.2-44.8-2.7-52.6
			c4.5-7.8,15.5-29,15.5-29l19.3-11.2L92.6,45.1L92.6,45.1z"/>
		<path class="st1" d="M241.6,145.7c-6.2,5.4-21.1,4.4-27.8-4.6s-9.7-16.8-4.1-36.1c5.6-19.3,2.1-17,0-21.6
			c-2.1-4.6-13.3-4.1-16.4-7c-3.1-2.9,0.4-10.8-11.8-17s-29.4-12-31.5-12s3.9,5.6,3.7,9.1c-0.2,3.5,0,10.9-11.8,7.7
			c-6.8-1.9-5.2-11.6-12.8-16.2c-7.7-4.6-23.2-9.1-23.2-9.1l24-4.5l42.5,7.6l35.9,26.3l13.5,14.9l17.3,32L241.6,145.7L241.6,145.7z"
			/>
		<path class="st2" d="M128,273.3c-67,0-121.6-54.5-121.6-121.6S61,30.1,128,30.1s121.6,54.5,121.6,121.6S195,273.3,128,273.3z
			 M128,40.8c-61.1,0-110.9,49.7-110.9,110.9S66.8,262.6,128,262.6s110.9-49.7,110.9-110.9S189.1,40.8,128,40.8z"/>
	</g>
	<g id="Maps-Navigation_Pin_pin">
		<g id="Group_43">
			<g id="pin">
				<path id="Shape_182" class="st3" d="M104,6.1c16,0,28.9,13,28.9,28.9c0,13.1-19.6,46.1-26.5,56.6c-0.5,0.8-1.4,1.3-2.4,1.3
					c-1,0-1.9-0.5-2.4-1.3C94.6,81.2,75,48.2,75,35.1C75,19.1,88,6.1,104,6.1z"/>
				<path id="Oval_32" class="st1" d="M104,46.8c6.5,0,11.8-5.3,11.8-11.8s-5.3-11.8-11.8-11.8s-11.8,5.3-11.8,11.8
					S97.5,46.8,104,46.8z"/>
			</g>
		</g>
	</g>
</g>
</svg>
