<?xml version="1.0" encoding="utf-8"?>
<!-- Generator: Adobe Illustrator 27.8.1, SVG Export Plug-In . SVG Version: 6.00 Build 0)  -->
<svg version="1.1" id="Layer_1" xmlns="http://www.w3.org/2000/svg" xmlns:xlink="http://www.w3.org/1999/xlink" x="0px" y="0px"
	 viewBox="0 0 145 49" style="enable-background:new 0 0 145 49;" xml:space="preserve">
<style type="text/css">
	.st0{fill:none;stroke:#000000;stroke-width:0.7;stroke-linecap:round;stroke-linejoin:round;}
	.st1{fill:#CDCDCD;}
	.st2{enable-background:new    ;}
	.st3{fill:#242424;}
</style>
<g>
	<line class="st0" x1="19.4" y1="26.6" x2="112.1" y2="5.4"/>
	<line class="st0" x1="19.4" y1="29.2" x2="114.6" y2="28.9"/>
	<circle class="st1" cx="19.4" cy="27.9" r="2.2"/>
	<path d="M19.4,26.1c1,0,1.8,0.8,1.8,1.8s-0.8,1.8-1.8,1.8s-1.8-0.8-1.8-1.8S18.4,26.1,19.4,26.1 M19.4,25.4c-1.4,0-2.5,1.1-2.5,2.5
		s1.1,2.5,2.5,2.5s2.5-1.1,2.5-2.5S20.7,25.4,19.4,25.4L19.4,25.4z"/>
	<path class="st1" d="M115.6,29c-6.7,0-12.1-5.4-12.1-12.1s5.4-12.1,12.1-12.1s12.1,5.4,12.1,12.1S122.3,29,115.6,29z"/>
	<path d="M115.6,5.1c6.5,0,11.8,5.3,11.8,11.8s-5.3,11.8-11.8,11.8s-11.8-5.3-11.8-11.8S109.1,5.1,115.6,5.1 M115.6,4.4
		c-6.9,0-12.5,5.6-12.5,12.5s5.6,12.5,12.5,12.5s12.5-5.6,12.5-12.5S122.5,4.4,115.6,4.4L115.6,4.4z"/>
	<g>
		<g class="st2">
			<path class="st3" d="M18,42.1c-0.2,0-0.3-0.2-0.3-0.5v-0.2c0-0.4,0.1-0.5,0.3-0.5h1.5v-5.6l0.6,0.5l-2,0.3c-0.1,0-0.2,0-0.3-0.1
				c-0.1-0.1-0.1-0.2-0.1-0.3s0-0.2,0-0.4c0-0.1,0-0.2,0.1-0.3c0-0.1,0.1-0.1,0.2-0.1l2.7-0.5c0.1,0,0.2,0,0.3,0.1
				c0.1,0.1,0.2,0.1,0.2,0.2v6.1h1.4c0.2,0,0.3,0.2,0.3,0.5v0.2c0,0.4-0.1,0.5-0.3,0.5H18z"/>
		</g>
	</g>
	<g>
		<g class="st2">
			<path class="st3" d="M111.4,42.2c-0.2,0-0.4,0-0.6,0c-0.2,0-0.5-0.1-0.7-0.1c-0.2-0.1-0.4-0.2-0.6-0.3s-0.2-0.3-0.2-0.4
				c0-0.1,0-0.2,0.1-0.3c0.1-0.1,0.1-0.3,0.2-0.4c0.1-0.1,0.2-0.2,0.2-0.2c0.1,0,0.2,0,0.3,0.1s0.3,0.1,0.5,0.2
				c0.2,0.1,0.5,0.1,0.8,0.1c0.2,0,0.4,0,0.6-0.1c0.2-0.1,0.3-0.2,0.4-0.4c0.1-0.2,0.1-0.3,0.1-0.6c0-0.4-0.1-0.6-0.3-0.8
				s-0.5-0.3-1-0.3h-0.3c-0.2,0-0.3-0.2-0.3-0.6V38c0-0.2,0-0.3,0.1-0.4c0.1-0.1,0.1-0.1,0.3-0.1h0.2c0.2,0,0.4,0,0.5-0.1
				s0.3-0.1,0.4-0.2c0.1-0.1,0.2-0.2,0.2-0.3s0.1-0.2,0.1-0.4c0-0.2,0-0.3-0.1-0.5s-0.2-0.2-0.3-0.3c-0.1-0.1-0.3-0.1-0.5-0.1
				c-0.3,0-0.5,0-0.7,0.1c-0.2,0.1-0.3,0.1-0.4,0.2c-0.1,0.1-0.2,0.1-0.2,0.1c-0.1,0-0.2,0-0.2-0.1c-0.1-0.1-0.2-0.2-0.2-0.4
				c-0.1-0.1-0.1-0.3-0.1-0.4c0-0.1,0.1-0.2,0.2-0.3c0.1-0.1,0.3-0.2,0.5-0.2c0.2-0.1,0.4-0.1,0.7-0.2s0.5-0.1,0.8-0.1
				c0.7,0,1.2,0.2,1.6,0.5c0.4,0.3,0.6,0.8,0.6,1.4c0,0.2,0,0.5-0.1,0.7c-0.1,0.2-0.2,0.4-0.4,0.5s-0.3,0.3-0.5,0.4v0
				c0.3,0.1,0.5,0.3,0.7,0.5c0.2,0.2,0.3,0.4,0.4,0.7s0.1,0.5,0.1,0.8c0,0.5-0.1,0.9-0.3,1.2c-0.2,0.3-0.5,0.6-1,0.8
				C112.4,42.1,111.9,42.2,111.4,42.2z"/>
			<path class="st3" d="M117.4,42.2c-0.4,0-0.8,0-1.1-0.1c-0.3-0.1-0.6-0.2-0.8-0.3c-0.2-0.1-0.3-0.3-0.3-0.4c0-0.1,0-0.1,0.1-0.2
				s0.1-0.2,0.1-0.3c0.1-0.1,0.1-0.2,0.2-0.3c0.1-0.1,0.1-0.1,0.2-0.1c0,0,0.1,0,0.3,0.1c0.1,0.1,0.3,0.1,0.5,0.2
				c0.2,0.1,0.5,0.1,0.8,0.1c0.4,0,0.7-0.1,0.9-0.3s0.3-0.5,0.3-0.8c0-0.4-0.1-0.7-0.3-0.9c-0.2-0.2-0.6-0.3-1.1-0.3H116
				c-0.2,0-0.3,0-0.3-0.1c-0.1-0.1-0.1-0.2-0.1-0.3l0.2-3.3c0-0.2,0.1-0.3,0.1-0.3c0.1-0.1,0.2-0.1,0.3-0.1h3.2
				c0.2,0,0.3,0.2,0.3,0.5v0.3c0,0.3-0.1,0.4-0.3,0.4h-2.9l0.7-0.6l-0.2,2.8l-0.6-0.6h0.9c0.4,0,0.8,0,1.1,0.1
				c0.3,0.1,0.6,0.2,0.9,0.4c0.2,0.2,0.4,0.4,0.6,0.8c0.1,0.3,0.2,0.7,0.2,1.2c0,0.5-0.1,0.9-0.2,1.2c-0.2,0.3-0.4,0.6-0.7,0.8
				c-0.3,0.2-0.6,0.3-0.9,0.4C118,42.2,117.7,42.2,117.4,42.2z"/>
			<path class="st3" d="M123.7,42.1c-0.4,0-0.6-0.1-0.6-0.3v-1.7h-1.7c-0.2,0-0.3-0.2-0.3-0.5v-0.1c0-0.4,0.1-0.5,0.3-0.5h1.7v-1.7
				c0-0.2,0.2-0.3,0.6-0.3h0.2c0.4,0,0.5,0.1,0.5,0.3V39h1.7c0.2,0,0.3,0.2,0.3,0.5v0.1c0,0.4-0.1,0.5-0.3,0.5h-1.7v1.7
				c0,0.2-0.2,0.3-0.5,0.3H123.7z"/>
		</g>
	</g>
</g>
</svg>
