<?xml version="1.0" encoding="UTF-8"?><svg id="Layer_1" xmlns="http://www.w3.org/2000/svg" viewBox="0 0 200 70"><defs><style>.cls-1,.cls-2{fill:#cdcdcd;}.cls-2{stroke:#000;stroke-dasharray:0 0 0 3;stroke-linecap:round;stroke-linejoin:round;stroke-width:.7px;}.cls-3{fill:#242424;font-family:Asap-Bold, Asap;font-size:10px;font-variation-settings:'wght' 700, 'wdth' 100;font-weight:700;}</style></defs><line class="cls-2" x1="48" y1="34" x2="128.86" y2="34"/><circle class="cls-1" cx="44.76" cy="34" r="1.35"/><path d="m44.76,32.8c.66,0,1.2.54,1.2,1.2s-.54,1.2-1.2,1.2-1.2-.54-1.2-1.2.54-1.2,1.2-1.2m0-.3c-.83,0-1.5.67-1.5,1.5s.67,1.5,1.5,1.5,1.5-.67,1.5-1.5-.67-1.5-1.5-1.5h0Z"/><path class="cls-1" d="m141,46.35c-6.81,0-12.35-5.54-12.35-12.35s5.54-12.35,12.35-12.35,12.35,5.54,12.35,12.35-5.54,12.35-12.35,12.35Z"/><path d="m141,21.8c6.73,0,12.2,5.47,12.2,12.2s-5.47,12.2-12.2,12.2-12.2-5.47-12.2-12.2,5.47-12.2,12.2-12.2m0-.3c-6.9,0-12.5,5.6-12.5,12.5s5.6,12.5,12.5,12.5,12.5-5.6,12.5-12.5-5.6-12.5-12.5-12.5h0Z"/><text class="cls-3" transform="translate(41.55 57.25)"><tspan x="0" y="0">1</tspan></text><text class="cls-3" transform="translate(132.32 57.25)"><tspan x="0" y="0">35+</tspan></text></svg>