<?xml version="1.0" encoding="utf-8"?>
<!-- Generator: Adobe Illustrator 27.8.1, SVG Export Plug-In . SVG Version: 6.00 Build 0)  -->
<svg version="1.1" id="Layer_1" xmlns="http://www.w3.org/2000/svg" xmlns:xlink="http://www.w3.org/1999/xlink" x="0px" y="0px"
	 viewBox="0 0 78 100" style="enable-background:new 0 0 78 100;" xml:space="preserve">
<style type="text/css">
	.st0{fill:none;stroke:#30343F;stroke-width:6;stroke-linecap:round;stroke-linejoin:round;stroke-miterlimit:10;}
</style>
<path class="st0" d="M39.1,5.6C22.7,5.6,9.5,18.9,9.5,35.2c0,13.5,20,47.2,27.1,57.8c0.6,0.8,1.5,1.3,2.4,1.3c1,0,2-0.5,2.4-1.3
	c7.1-10.7,27.1-44.5,27.1-57.8C68.7,18.9,55.4,5.6,39.1,5.6z M39.1,47.2c-6.6,0-12.1-5.4-12.1-12.1s5.4-12,12.1-12
	s12.1,5.3,12.1,12.1S45.7,47.2,39.1,47.2z"/>
</svg>
