<?xml version="1.0" encoding="UTF-8"?> <svg xmlns="http://www.w3.org/2000/svg" width="248" height="110" viewBox="0 0 248 110" fill="none"><g clip-path="url(#clip0_3702_1454)"><path d="M50.0218 107.803C76.435 107.803 97.8472 86.3763 97.8472 59.9446C97.8472 33.513 76.435 12.0859 50.0218 12.0859C23.6085 12.0859 2.19629 33.513 2.19629 59.9446C2.19629 86.3763 23.6085 107.803 50.0218 107.803Z" fill="#2D80C3"></path><path d="M35.4468 16.044C34.7647 18.6039 35.445 24.434 37.1522 26.9234C38.6444 29.0992 40.7053 28.8474 41.9273 26.7527C43.153 24.6515 44.432 23.8195 45.338 25.0461C47.5394 28.0266 49.3541 28.0802 53.2894 28.2033C57.3823 28.3313 56.0393 32.107 54.5044 33.515C52.5219 34.5389 50.2836 34.4322 49.4309 36.1388C48.5782 37.8454 46.3612 44.6716 43.2916 46.8902C40.2219 49.1087 37.5436 47.6048 35.8305 47.6581C33.7734 47.7221 31.6417 48.2981 31.3539 50.7299C31.0395 53.3864 34.1571 55.4337 37.3973 56.9696C40.6376 58.5055 43.9204 60.6173 44.432 63.6892C47.8428 62.1533 50.4115 61.9293 53.9928 62.6332C57.6052 63.3433 59.3221 64.7178 60.8676 66.889C62.5304 69.2248 62.2852 73.4806 65.9518 72.7126C69.6184 71.9447 72.283 71.55 73.7326 73.0859C75.1822 74.6218 76.2298 79.9715 70.5563 86.7598C66.1436 92.0395 59.2471 93.3768 56.9666 95.3033C54.5044 97.3831 48.7488 103.633 47.6403 105.681C46.5318 107.729 40.6482 107.132 40.6482 107.132C40.6482 107.132 46.8302 100.583 46.6384 91.7195C46.4997 85.3123 41.9444 81.9176 39.625 78.7176C35.3189 72.7766 41.0746 73.5446 42.1617 71.0167C43.0217 69.0172 42.0978 65.3211 38.1754 63.1879C31.5198 59.5682 23.7756 61.8013 19.4162 54.1431C14.471 45.4557 16.4531 35.6908 18.3077 32.4697C20.15 29.2699 24.7029 20.5237 24.7029 20.5237L32.6329 15.916L35.4468 16.044Z" fill="white"></path><path d="M96.7555 57.47C94.1974 59.6885 88.0581 59.2619 85.3294 55.5928C82.6008 51.9237 81.3218 48.6812 83.6241 40.7457C85.9263 32.8101 84.4768 33.7488 83.6241 31.8715C82.7714 29.9943 78.1669 30.165 76.8878 28.9704C75.6088 27.7758 77.0584 24.5333 72.0275 21.9735C66.9966 19.4136 59.9193 17.0244 59.0666 17.0244C58.2139 17.0244 60.6867 19.3283 60.6014 20.7789C60.5162 22.2294 60.5898 25.2593 55.7411 23.936C52.9272 23.1681 53.6094 19.1576 50.4544 17.2804C47.2995 15.4032 40.9043 13.526 40.9043 13.526L50.7955 11.6914L68.2756 14.8059L83.0272 25.6426L88.5697 31.7862L95.6896 44.9694L96.7555 57.47Z" fill="white"></path><path d="M50.0216 110.001C22.4392 110.001 0 87.5454 0 59.9438C0 32.3423 22.4392 9.88672 50.0216 9.88672C77.6041 9.88672 100.045 32.3423 100.045 59.9438C100.045 87.5454 77.6041 110.001 50.0216 110.001ZM50.0216 14.2835C24.8621 14.2835 4.39374 34.7668 4.39374 59.9438C4.39374 85.1209 24.8621 105.604 50.0216 105.604C75.1812 105.604 95.651 85.1209 95.651 59.9438C95.651 34.7668 75.1812 14.2835 50.0216 14.2835Z" fill="#2F80C3"></path><path d="M40.132 0C46.7093 0 52.0413 5.33575 52.0413 11.9176C52.0413 17.3314 43.9843 30.9064 41.1244 35.2205C40.9037 35.5534 40.5312 35.7535 40.132 35.7535C39.7328 35.7535 39.3603 35.5534 39.1396 35.2205C36.2797 30.9064 28.2227 17.3314 28.2227 11.9176C28.2227 5.33575 33.5547 0 40.132 0Z" fill="#30343F"></path><path d="M40.1315 16.76C42.8044 16.76 44.9711 14.5918 44.9711 11.9171C44.9711 9.24241 42.8044 7.07422 40.1315 7.07422C37.4587 7.07422 35.292 9.24241 35.292 11.9171C35.292 14.5918 37.4587 16.76 40.1315 16.76Z" fill="white"></path><path d="M124.54 44.189H120.375V54.5026C119.523 54.6535 118.502 54.7294 117.312 54.7294C116.122 54.7294 115.1 54.6535 114.248 54.5026V23.6986L114.566 23.4259C117.017 23.3658 119.068 23.32 120.716 23.2899C122.366 23.2599 123.63 23.2441 124.509 23.2441C127.775 23.2441 130.387 24.138 132.341 25.9249C134.292 27.7125 135.267 30.3023 135.267 33.6937C135.267 35.3904 135.012 36.8896 134.498 38.1921C133.986 39.4945 133.262 40.5851 132.326 41.4632C131.391 42.342 130.267 43.0154 128.954 43.4848C127.641 43.955 126.171 44.189 124.54 44.189ZM120.375 27.9694V39.5546C121.551 39.5253 122.552 39.5095 123.379 39.5095C124.208 39.5095 124.915 39.4573 125.501 39.3507C126.088 39.2448 126.585 39.048 126.992 38.7596C127.398 38.4726 127.767 38.0411 128.099 37.465C128.399 36.9505 128.625 36.3672 128.777 35.716C128.925 35.0648 129.003 34.4057 129.003 33.7395C129.003 33.0432 128.925 32.354 128.777 31.672C128.625 30.9908 128.37 30.3775 128.01 29.8322C127.647 29.2869 127.166 28.8482 126.563 28.5147C125.962 28.1819 125.21 28.0145 124.306 28.0145H122.026C121.376 28.0145 120.827 28.0002 120.375 27.9694Z" fill="white"></path><path d="M147.527 50.1416H148.935C149.266 50.9904 149.435 51.8076 149.435 52.5955C149.435 53.3834 149.389 53.9581 149.298 54.3216C147.45 54.5943 145.983 54.7302 144.893 54.7302C143.139 54.7302 141.852 54.2837 141.034 53.3906C140.219 52.4975 139.81 51.0956 139.81 49.1877V21.3822L140.127 21.0645H142.395C143.577 21.0645 144.409 21.345 144.893 21.9046C145.376 22.4656 145.619 23.4117 145.619 24.7442V48.052C145.619 49.4454 146.254 50.1416 147.527 50.1416Z" fill="white"></path><path d="M172.042 51.7783C171.89 52.3236 171.618 52.899 171.226 53.5044C170.832 54.1105 170.437 54.5642 170.045 54.8676C168.077 54.625 166.638 53.762 165.731 52.2778C163.763 54.1864 161.615 55.1403 159.284 55.1403C158.105 55.1403 157.067 54.9507 156.174 54.5721C155.282 54.1935 154.541 53.6861 153.949 53.05C153.36 52.4145 152.919 51.6874 152.633 50.8695C152.344 50.0515 152.201 49.2042 152.201 48.3254C152.201 47.053 152.421 45.9402 152.859 44.9856C153.3 44.0317 153.92 43.2366 154.721 42.6004C155.522 41.9642 156.46 41.4805 157.536 41.147C158.612 40.8135 159.784 40.6468 161.054 40.6468C162.691 40.6468 163.961 40.6926 164.867 40.7835V39.5562C164.867 37.2547 163.749 36.1033 161.509 36.1033C159.996 36.1033 157.696 36.6336 154.607 37.6934C153.76 36.7552 153.245 35.3469 153.065 33.4684C156.272 32.1051 159.587 31.4238 163.008 31.4238C165.277 31.4238 167.139 32.06 168.592 33.3324C170.045 34.6041 170.772 36.5284 170.772 39.1025V48.4163C170.772 50.0222 171.195 51.1421 172.042 51.7783ZM160.6 50.6426C162.113 50.6426 163.537 49.9764 164.867 48.6432V44.6908C164.384 44.6607 163.915 44.6299 163.46 44.5999C163.008 44.5698 162.568 44.5541 162.144 44.5541C160.811 44.5541 159.799 44.8038 159.104 45.3041C158.406 45.8036 158.059 46.6294 158.059 47.7801C158.059 48.689 158.285 49.3931 158.74 49.8926C159.192 50.3921 159.813 50.6426 160.6 50.6426Z" fill="white"></path><path d="M195.56 39.3293V49.2336C195.56 51.1729 195.878 52.6113 196.513 53.5502C195.546 54.3982 194.382 54.8219 193.017 54.8219C191.716 54.8219 190.823 54.527 190.34 53.9359C189.856 53.3455 189.613 52.4145 189.613 51.1421V40.5559C189.613 39.1934 189.447 38.2387 189.113 37.6934C188.781 37.1489 188.16 36.8762 187.253 36.8762C185.649 36.8762 184.15 37.6026 182.757 39.0567V54.5041C182.305 54.595 181.827 54.6551 181.326 54.6859C180.829 54.716 180.32 54.731 179.808 54.731C179.293 54.731 178.783 54.716 178.286 54.6859C177.785 54.6551 177.31 54.595 176.855 54.5041V32.0143L177.127 31.6965H179.398C181.092 31.6965 182.15 32.6054 182.576 34.4223C184.785 32.5145 186.979 31.5605 189.158 31.5605C191.338 31.5605 192.952 32.2647 193.996 33.6731C195.04 35.0814 195.56 36.9671 195.56 39.3293Z" fill="white"></path><path d="M218.76 45.1436H206.228C206.32 46.8102 206.706 48.1198 207.387 49.0738C208.067 50.0277 209.254 50.505 210.951 50.505C212.707 50.505 214.721 49.9905 216.989 48.96C217.867 49.8688 218.428 51.066 218.668 52.5495C216.248 54.2763 213.342 55.1394 209.952 55.1394C206.743 55.1394 204.314 54.1475 202.667 52.1631C201.016 50.1801 200.192 47.2339 200.192 43.3266C200.192 41.5089 200.401 39.8665 200.827 38.3974C201.251 36.9282 201.872 35.6709 202.687 34.626C203.505 33.5812 204.503 32.7711 205.685 32.1951C206.866 31.6204 208.21 31.332 209.726 31.332C211.268 31.332 212.63 31.5668 213.811 32.0362C214.993 32.5064 215.991 33.1719 216.809 34.0357C217.624 34.8987 218.239 35.9206 218.645 37.1021C219.055 38.2836 219.261 39.571 219.261 40.9643C219.261 41.7214 219.215 42.4406 219.123 43.1219C219.032 43.8039 218.912 44.478 218.76 45.1436ZM209.998 35.6029C207.638 35.6029 206.365 37.3905 206.185 40.9643H213.72V40.419C213.72 38.9649 213.417 37.7991 212.813 36.9203C212.207 36.0423 211.268 35.6029 209.998 35.6029Z" fill="white"></path><path d="M236.423 31.9225C236.603 32.6495 236.695 33.3616 236.695 34.0579C236.695 34.7556 236.603 35.4669 236.423 36.1933L230.928 36.1024V48.0519C230.928 49.4452 231.58 50.1415 232.881 50.1415H235.696C235.997 51.0503 236.148 51.9134 236.148 52.7313C236.148 53.5493 236.105 54.0796 236.014 54.3215C234.166 54.5941 232.349 54.7301 230.564 54.7301C226.932 54.7301 225.115 52.8831 225.115 49.1876V36.1482L221.665 36.1933C221.514 35.5879 221.439 34.8758 221.439 34.0579C221.439 33.2406 221.514 32.5293 221.665 31.9225L225.115 31.9683V28.6971C225.115 27.3647 225.358 26.425 225.842 25.8805C226.328 25.3352 227.16 25.0625 228.339 25.0625H230.61L230.928 25.3352V32.0133L236.423 31.9225Z" fill="white"></path><path d="M133.408 88.7009C132.498 89.4881 131.265 90.0635 129.706 90.427C128.147 90.7905 126.551 90.9723 124.918 90.9723C124.1 90.9723 122.835 90.9566 121.125 90.9265C119.414 90.8964 117.229 90.8506 114.566 90.7905L114.248 90.5172V59.9407L114.566 59.6681C116.319 59.608 118.084 59.5622 119.855 59.5321C121.625 59.5021 123.433 59.4863 125.281 59.4863C127.821 59.4863 129.932 59.8957 131.614 60.7129C133.293 61.5309 134.632 62.6594 135.63 64.0978C136.632 65.5369 137.335 67.21 137.741 69.1186C138.15 71.0265 138.356 73.071 138.356 75.2522C138.356 78.2815 138.016 80.8935 137.335 83.089C136.652 85.286 135.344 87.1552 133.408 88.7009ZM130.913 67.9371C130.009 65.514 128.139 64.3025 125.307 64.3025H122.501C121.688 64.3025 120.979 64.2874 120.375 64.2567V86.202C120.947 86.1719 121.605 86.1562 122.343 86.1562C123.081 86.1562 123.828 86.1404 124.583 86.1104C125.335 86.0803 126.036 86.0202 126.686 85.9286C127.332 85.8384 127.867 85.6867 128.29 85.4749C129.074 85.0512 129.715 84.483 130.213 83.7703C130.71 83.0589 131.094 82.2417 131.365 81.3171C131.637 80.394 131.826 79.3935 131.932 78.3187C132.038 77.2438 132.089 76.1303 132.089 74.9796C132.089 73.6771 132.006 72.4656 131.84 71.3449C131.674 70.2242 131.365 69.0886 130.913 67.9371Z" fill="white"></path><path d="M160.603 81.3845H148.071C148.162 83.0505 148.548 84.3601 149.229 85.3147C149.91 86.2679 151.097 86.746 152.793 86.746C154.547 86.746 156.561 86.2307 158.832 85.2002C159.707 86.109 160.268 87.3056 160.511 88.7898C158.088 90.5159 155.182 91.3789 151.792 91.3789C148.586 91.3789 146.157 90.3885 144.507 88.4033C142.856 86.4196 142.032 83.4741 142.032 79.5668C142.032 77.7491 142.244 76.1061 142.667 74.6376C143.091 73.1684 143.711 71.9111 144.529 70.8663C145.348 69.8215 146.346 69.0114 147.527 68.4353C148.706 67.8607 150.053 67.5723 151.566 67.5723C153.111 67.5723 154.473 67.807 155.654 68.2764C156.832 68.7466 157.831 69.4121 158.649 70.2759C159.467 71.1389 160.079 72.1608 160.488 73.3423C160.897 74.5238 161.1 75.8112 161.1 77.2038C161.1 77.9624 161.055 78.6809 160.966 79.3622C160.874 80.0434 160.751 80.7175 160.603 81.3845ZM151.838 71.8431C149.478 71.8431 148.208 73.6307 148.025 77.2038H155.562V76.6585C155.562 75.2051 155.259 74.0394 154.653 73.1606C154.049 72.2825 153.111 71.8431 151.838 71.8431Z" fill="white"></path><path d="M178.264 68.1627C178.444 68.8898 178.535 69.6018 178.535 70.2981C178.535 70.9958 178.444 71.7072 178.264 72.4335L172.769 72.3426V84.2914C172.769 85.6854 173.421 86.3825 174.722 86.3825H177.537C177.837 87.2899 177.989 88.1543 177.989 88.9716C177.989 89.7888 177.946 90.3198 177.855 90.5617C176.007 90.8336 174.19 90.971 172.405 90.971C168.772 90.971 166.956 89.1233 166.956 85.4278V72.3885L163.506 72.4335C163.355 71.8281 163.28 71.1161 163.28 70.2981C163.28 69.4809 163.355 68.7695 163.506 68.1627L166.956 68.2085V64.9374C166.956 63.6049 167.199 62.6653 167.683 62.1207C168.169 61.5754 169.001 61.3027 170.18 61.3027H172.451L172.769 61.5754V68.2536L178.264 68.1627Z" fill="white"></path><path d="M181.258 70.935C181.378 70.3897 181.63 69.8151 182.007 69.209C182.385 68.6035 182.771 68.1491 183.166 67.8457C185.617 68.1491 187.296 69.5117 188.206 71.9348C189.356 69.239 191.275 67.8915 193.97 67.8915C194.968 67.8915 195.878 67.9974 196.696 68.2092C196.696 70.3296 196.21 72.1774 195.243 73.7517C194.788 73.6007 194.09 73.4948 193.155 73.434C191.398 73.434 189.977 74.3729 188.887 76.2514V90.7442C187.977 90.8959 187.002 90.9718 185.958 90.9718C184.914 90.9718 183.907 90.8959 182.937 90.7442V75.6145C182.937 73.4648 182.376 71.9047 181.258 70.935Z" fill="white"></path><path d="M214.809 70.1163C216.96 72.2675 218.033 75.3869 218.033 79.4752C218.033 81.2929 217.807 82.936 217.352 84.4059C216.897 85.8743 216.239 87.1238 215.378 88.1543C214.514 89.1834 213.447 89.9791 212.177 90.5388C210.904 91.0984 209.468 91.3789 207.864 91.3789C206.259 91.3789 204.829 91.0984 203.573 90.5388C202.317 89.9791 201.259 89.1834 200.395 88.1543C199.531 87.1238 198.873 85.8743 198.421 84.4059C197.966 82.936 197.74 81.2929 197.74 79.4752C197.74 75.8112 198.616 72.9108 200.372 70.7754C202.128 68.64 204.625 67.5723 207.864 67.5723C210.707 67.5723 213.024 68.421 214.809 70.1163ZM207.864 72.0249C205.2 72.0249 203.867 74.5088 203.867 79.4752C203.867 84.413 205.2 86.8819 207.864 86.8819C210.558 86.8819 211.905 84.413 211.905 79.4752C211.905 74.5088 210.558 72.0249 207.864 72.0249Z" fill="white"></path><path d="M229.612 72.7978V90.7442C229.157 90.8344 228.68 90.8959 228.182 90.926C227.681 90.956 227.175 90.9718 226.66 90.9718C226.145 90.9718 225.639 90.956 225.138 90.926C224.64 90.8959 224.148 90.8344 223.665 90.7442V74.9332C223.665 73.268 222.984 72.4343 221.62 72.4343H221.031C220.85 71.7688 220.759 71.0717 220.759 70.3447C220.759 69.6784 220.85 68.9814 221.031 68.2543C221.726 68.1942 222.369 68.1413 222.961 68.0955C223.551 68.0504 224.057 68.0275 224.48 68.0275H225.253C226.614 68.0275 227.681 68.4518 228.454 69.2999C229.226 70.1479 229.612 71.3143 229.612 72.7978ZM222.755 59.4407C223.451 59.0471 224.452 58.8496 225.753 58.8496C226.508 58.8496 227.121 58.9112 227.593 59.0314C228.059 59.153 228.402 59.2969 228.614 59.4636C228.825 59.6304 228.96 59.9402 229.023 60.3946C229.083 60.8491 229.111 61.3192 229.111 61.803C229.023 63.348 228.831 64.196 228.545 64.347C228.256 64.4995 227.312 64.6504 225.707 64.8014C224.011 64.7413 223.021 64.5145 222.733 64.1202C222.446 63.7266 222.301 62.9544 222.301 61.803C222.301 60.9249 222.452 60.1377 222.755 59.4407Z" fill="white"></path><path d="M247.727 68.1627C247.908 68.8898 247.999 69.6018 247.999 70.2981C247.999 70.9958 247.908 71.7072 247.727 72.4335L242.232 72.3426V84.2914C242.232 85.6854 242.885 86.3825 244.186 86.3825H247.001C247.301 87.2899 247.453 88.1543 247.453 88.9716C247.453 89.7888 247.41 90.3198 247.318 90.5617C245.471 90.8336 243.654 90.971 241.869 90.971C238.236 90.971 236.42 89.1233 236.42 85.4278V72.3885L232.97 72.4335C232.819 71.8281 232.744 71.1161 232.744 70.2981C232.744 69.4809 232.819 68.7695 232.97 68.1627L236.42 68.2085V64.9374C236.42 63.6049 236.663 62.6653 237.146 62.1207C237.633 61.5754 238.465 61.3027 239.644 61.3027H241.915L242.232 61.5754V68.2536L247.727 68.1627Z" fill="white"></path></g><defs><clipPath id="clip0_3702_1454"><rect width="248" height="110" fill="white"></rect></clipPath></defs></svg> 