<?xml version="1.0" encoding="UTF-8"?> <svg xmlns="http://www.w3.org/2000/svg" id="Layer_1" viewBox="0 0 630.43686 279.43513"><defs><style>.cls-1{fill:#fff;}.cls-2{fill:#2f80c3;}.cls-3{fill:#30343f;}.cls-4{fill:#2d80c3;}</style></defs><g><circle class="cls-4" cx="127.16043" cy="152.27398" r="121.57637"></circle><path class="cls-1" d="M90.10842,40.75215c-1.73409,6.50283-.00467,21.31318,4.33522,27.63702,3.79332,5.5274,9.03233,4.88768,12.13861-.43352,3.11594-5.33774,6.36735-7.45116,8.67044-4.33522,5.59614,7.57125,10.20921,7.70754,20.21296,8.02016,10.40453,.32514,6.99054,9.91681,3.08884,13.49337-5.03969,2.60113-10.72967,2.33018-12.89728,6.6654-2.16761,4.33522-7.80339,21.6761-15.60679,27.31188-7.80339,5.63579-14.61185,1.81547-18.96658,1.95085-5.22936,.16257-10.64838,1.62571-11.37995,7.80339-.79914,6.74832,7.12602,11.94895,15.36293,15.85065,8.23692,3.9017,16.58221,9.26653,17.88278,17.06993,8.67044-3.9017,15.20036-4.47069,24.30432-2.68242,9.18297,1.8038,13.54746,5.29539,17.47635,10.81095,4.22684,5.93383,3.60365,16.74478,12.92437,14.79394,9.32072-1.95085,16.0945-2.95337,19.77944,.94833,3.68494,3.9017,6.34815,17.49165-8.07435,34.73595-11.21738,13.41208-28.74904,16.80942-34.54628,21.70319-6.25897,5.28355-20.89034,21.16129-23.70823,26.36355-2.81789,5.20226-17.7744,3.68494-17.7744,3.68494,0,0,15.71517-16.6364,15.22746-39.15245-.35256-16.27636-11.93257-24.90004-17.82859-33.02895-10.94643-15.09198,3.68494-13.14113,6.44864-19.56268,2.18605-5.07935-.16257-14.46879-10.13358-19.88782-16.91913-9.19518-36.60551-3.52237-47.68741-22.97666-12.57116-22.06869-7.53244-46.87456-2.81789-55.05729,4.68324-8.12839,16.25707-30.34654,16.25707-30.34654l20.15877-11.70509,7.15311,.32514Z"></path><path class="cls-1" d="M245.95955,145.9896c-6.50283,5.63579-22.10962,4.55198-29.04597-4.76874-6.93635-9.32072-10.18777-17.55764-4.33522-37.71641,5.85255-20.15877,2.16761-17.7744,0-22.54314-2.16761-4.76874-13.8727-4.33522-17.12412-7.36987-3.25141-3.03465,.43352-11.27157-12.35538-17.7744-12.7889-6.50283-30.78006-12.57214-32.94767-12.57214s4.11846,5.85255,3.9017,9.53748c-.21676,3.68494-.02952,11.38175-12.35538,8.02016-7.15311-1.95085-5.41902-12.13861-13.43918-16.90736-8.02016-4.76874-24.27723-9.53748-24.27723-9.53748l25.14427-4.66036,44.436,7.91178,37.49965,27.52864,14.08946,15.60679,18.09954,33.48957,2.70951,31.75548Z"></path><path class="cls-2" d="M127.15923,279.43513C57.04241,279.43513,0,222.3909,0,152.27408S57.04241,25.11303,127.15923,25.11303s127.16286,57.04422,127.16286,127.16105-57.04604,127.16105-127.16286,127.16105Zm0-243.15285c-63.95774,0-115.98998,52.03406-115.98998,115.9918s52.03224,115.9918,115.98998,115.9918,115.99362-52.03406,115.99362-115.9918S191.11697,36.28228,127.15923,36.28228Z"></path></g><g id="Maps-Navigation_Pin_pin"><g id="Group_43"><g id="pin"><path id="Shape_182" class="cls-3" d="M102.01843,0c16.71998,0,30.27455,13.55452,30.27455,30.27455,0,13.75272-20.48174,48.23745-27.75167,59.19684-.56109,.84567-1.50812,1.35388-2.52288,1.35388-1.01485,0-1.96179-.50821-2.52288-1.35388-7.26993-10.95939-27.75167-45.44412-27.75167-59.19684,0-16.72003,13.55447-30.27455,30.27455-30.27455Z"></path><path id="Oval_32" class="cls-1" d="M102.01843,42.57705c6.79455,0,12.3025-5.50791,12.3025-12.3025s-5.50795-12.3025-12.3025-12.3025-12.3025,5.50791-12.3025,12.3025,5.50787,12.3025,12.3025,12.3025Z"></path></g></g></g><g><path class="cls-3" d="M316.59273,112.25823h-10.58751v26.19973c-2.16695,.38358-4.76293,.57628-7.78793,.57628s-5.62098-.1927-7.78793-.57628V60.20599l.80715-.69262c6.2318-.1527,11.44557-.26905,15.63403-.3454,4.19574-.07635,7.4098-.11635,9.6422-.11635,8.30422,0,14.94323,2.27057,19.90976,6.80989,4.95926,4.54114,7.43889,11.12016,7.43889,19.73524,0,4.31027-.64718,8.11879-1.95607,11.42739-1.30162,3.3086-3.14135,6.07909-5.51918,8.30967-2.37783,2.23239-5.23558,3.94305-8.57327,5.1356-3.33768,1.19437-7.07531,1.78882-11.22015,1.78882Zm-10.58751-41.20295v29.43016c2.98865-.07453,5.53372-.11453,7.63523-.11453,2.10878,0,3.90487-.13271,5.39556-.40358,1.49069-.26905,2.75595-.76898,3.78853-1.50159,1.03257-.72898,1.97062-1.82518,2.81413-3.2886,.76352-1.30708,1.33798-2.78868,1.72338-4.44297,.37813-1.6543,.57446-3.32859,.57446-5.02107,0-1.76883-.19633-3.51948-.57446-5.25194-.3854-1.73065-1.03257-3.2886-1.9488-4.67385-.9235-1.38525-2.14513-2.49963-3.67945-3.34677-1.52705-.84533-3.43949-1.27072-5.73733-1.27072h-5.7955c-1.65066,0-3.04682-.03636-4.19574-.11453Z"></path><path class="cls-3" d="M375.02766,127.37779h3.57765c.84351,2.15604,1.27254,4.2321,1.27254,6.23362s-.11635,3.4613-.34904,4.3848c-4.69748,.69262-8.42783,1.03803-11.19833,1.03803-4.45752,0-7.72976-1.13438-9.80945-3.40313-2.07242-2.26875-3.11226-5.83004-3.11226-10.67659V54.31959l.80715-.80715h5.76641c3.00319,0,5.11924,.71262,6.34814,2.13423,1.22891,1.42524,1.847,3.82852,1.847,7.21347v59.20936c0,3.53947,1.6143,5.3083,4.85019,5.3083Z"></path><path class="cls-3" d="M437.34564,131.53354c-.3854,1.38525-1.0762,2.84685-2.07242,4.3848-1.00349,1.53977-2.00697,2.69233-3.00319,3.46312-5.00289-.61627-8.66053-2.80867-10.96564-6.57902-5.00289,4.84837-10.46389,7.27164-16.39028,7.27164-2.99592,0-5.63552-.48175-7.90428-1.44342s-4.15211-2.25057-5.65734-3.8667c-1.49796-1.6143-2.61779-3.4613-3.34496-5.53917-.73444-2.07787-1.09802-4.23028-1.09802-6.46267,0-3.23225,.55992-6.0591,1.67248-8.48419,1.11983-2.42328,2.69778-4.44297,4.73384-6.0591s4.42116-2.84503,7.1553-3.69218,5.71551-1.27072,8.94412-1.27072c4.15938,0,7.38799,.11635,9.6931,.34722v-3.11772c0-5.8464-2.84321-8.77142-8.53691-8.77142-3.8467,0-9.6931,1.34707-17.54648,4.0394-2.15241-2.38328-3.4613-5.96093-3.91942-10.73295,8.15151-3.46312,16.57935-5.19377,25.27623-5.19377,5.76641,0,10.50025,1.61612,14.19425,4.84837,3.69399,3.23043,5.54099,8.11879,5.54099,14.65782v23.66011c0,4.07939,1.0762,6.92442,3.22861,8.54055Zm-29.08657-2.88502c3.8467,0,7.46798-1.69248,10.84929-5.07924v-10.04032c-1.22891-.07635-2.42146-.15452-3.57765-.23087-1.14892-.07635-2.26875-.11635-3.34496-.11635-3.38859,0-5.96275,.63445-7.72976,1.90517-1.77428,1.2689-2.65415,3.36677-2.65415,6.28997,0,2.30875,.57446,4.09757,1.73065,5.36647,1.14892,1.2689,2.72687,1.90517,4.72657,1.90517Z"></path><path class="cls-3" d="M497.1331,99.90916v25.15989c0,4.92654,.80715,8.58054,2.42146,10.96564-2.45782,2.15422-5.41737,3.23043-8.88595,3.23043-3.3086,0-5.57735-.74898-6.80626-2.25057-1.22891-1.49978-1.847-3.86488-1.847-7.09712v-26.89236c0-3.4613-.42176-5.8864-1.27254-7.27164-.84351-1.38343-2.42146-2.07605-4.72657-2.07605-4.07939,0-7.88973,1.84518-11.43102,5.53917v39.24142c-1.14892,.23087-2.36328,.38358-3.63582,.46175-1.26527,.07635-2.55962,.11453-3.86124,.11453-1.3089,0-2.60325-.03818-3.86851-.11453-1.27254-.07817-2.47963-.23087-3.63582-.46175v-57.13148l.69081-.80715h5.77368c4.30481,0,6.99532,2.30875,8.0788,6.92442,5.61371-4.84655,11.19106-7.26983,16.73205-7.26983s9.6422,1.78882,12.29635,5.36647c2.65415,3.57765,3.97759,8.36784,3.97759,14.36877Z"></path><path class="cls-3" d="M556.10612,114.6815h-31.85707c.23269,4.23391,1.21436,7.56069,2.94502,9.98397s4.74838,3.63582,9.06047,3.63582c4.46479,0,9.58403-1.30708,15.35044-3.92487,2.23239,2.30875,3.65764,5.35011,4.26845,9.11864-6.15181,4.38662-13.5398,6.57902-22.1567,6.57902-8.15878,0-14.33241-2.51962-18.52088-7.56069-4.19574-5.03743-6.28997-12.52177-6.28997-22.44756,0-4.61749,.53083-8.7896,1.6143-12.52177,1.0762-3.73217,2.65415-6.92624,4.72657-9.58039,2.07969-2.65415,4.61749-4.71202,7.62068-6.17544,3.00319-1.45978,6.42086-2.1924,10.27483-2.1924,3.91942,0,7.38072,.59627,10.38391,1.78882,3.00319,1.19437,5.54099,2.88502,7.62068,5.07924,2.07242,2.1924,3.63582,4.78838,4.6684,7.78975,1.03985,3.00137,1.5634,6.27179,1.5634,9.81126,0,1.92335-.11635,3.75035-.34904,5.481-.23269,1.73247-.5381,3.44494-.9235,5.1356Zm-22.27304-24.23639c-5.99911,0-9.23499,4.54114-9.6931,13.61979h19.15351v-1.38525c0-3.69399-.77079-6.65537-2.30511-8.88777-1.54159-2.23058-3.92669-3.34677-7.1553-3.34677Z"></path><path class="cls-3" d="M601.00852,81.0956c.45811,1.847,.69081,3.65582,.69081,5.42465,0,1.77246-.23269,3.57947-.69081,5.42465l-13.96883-.23087v30.35548c0,3.53947,1.65793,5.3083,4.96653,5.3083h7.1553c.76352,2.30875,1.14892,4.50115,1.14892,6.57902s-.10907,3.42494-.34177,4.0394c-4.69748,.69262-9.31498,1.03803-13.85248,1.03803-9.23499,0-13.85248-4.69203-13.85248-14.07972v-33.12415l-8.7696,.11453c-.3854-1.53795-.57446-3.34677-.57446-5.42465,0-2.07605,.18906-3.88306,.57446-5.42465l8.7696,.11635v-8.30967c0-3.38495,.61809-5.77187,1.847-7.1553,1.23618-1.38525,3.35223-2.07787,6.34814-2.07787h5.77368l.80715,.69262v16.96474l13.96883-.23087Z"></path><path class="cls-3" d="M339.13483,225.32865c-2.31238,1.9997-5.44646,3.4613-9.40951,4.3848s-8.02062,1.38525-12.17273,1.38525c-2.07969,0-5.29376-.03999-9.6422-.11635s-9.90398-.1927-16.67388-.3454l-.80715-.69444v-77.67388l.80715-.69262c4.45752-.1527,8.94412-.26905,13.44527-.3454s9.09683-.11635,13.79431-.11635c6.45722,0,11.82369,1.03985,16.09942,3.1159,4.26845,2.07787,7.67158,4.94472,10.20939,8.59872,2.54508,3.65582,4.3339,7.90609,5.36647,12.75446,1.03985,4.84655,1.5634,10.04032,1.5634,15.58131,0,7.69522-.86533,14.33059-2.59598,19.90794-1.73792,5.58099-5.06106,10.32937-9.98397,14.25606Zm-6.34087-52.74668c-2.29784-6.15545-7.05349-9.23317-14.25242-9.23317h-7.13348c-2.06515,0-3.86851-.03818-5.40283-.11635v55.74805c1.45433-.07635,3.12681-.11635,5.00289-.11635s3.77398-.03999,5.6937-.11635c1.91244-.07635,3.69399-.22906,5.34466-.46175,1.64339-.22906,3.00319-.61445,4.07939-1.15256,1.99243-1.0762,3.62128-2.51962,4.88654-4.33026,1.26527-1.807,2.23967-3.88306,2.93047-6.2318,.69081-2.34511,1.17073-4.88654,1.43979-7.61705,.26905-2.7305,.39994-5.55917,.39994-8.48237,0-3.3086-.21088-6.38632-.63263-9.23317-.42176-2.84685-1.20709-5.73187-2.35601-8.65689Z"></path><path class="cls-3" d="M408.26634,206.74596h-31.85707c.23269,4.2321,1.21436,7.55887,2.94502,9.98397,1.73065,2.42146,4.74838,3.63582,9.06047,3.63582,4.45752,0,9.57675-1.3089,15.35044-3.92669,2.22512,2.30875,3.65037,5.34829,4.26845,9.11864-6.15908,4.3848-13.54707,6.5772-22.16397,6.5772-8.15151,0-14.32514-2.51599-18.52088-7.55887-4.19574-5.03925-6.28997-12.52177-6.28997-22.44756,0-4.61749,.5381-8.79142,1.6143-12.52177,1.0762-3.73217,2.65415-6.92624,4.73384-9.58039s4.61749-4.71202,7.62068-6.17544c2.99592-1.45978,6.42086-2.1924,10.26756-2.1924,3.92669,0,7.38799,.59627,10.39118,1.78882,2.99592,1.19437,5.53372,2.88502,7.61341,5.07924,2.07969,2.1924,3.63582,4.78838,4.67567,7.78975s1.55613,6.27179,1.55613,9.80945c0,1.92699-.11635,3.75217-.34177,5.48282-.23269,1.73065-.54537,3.44312-.9235,5.13742Zm-22.28032-24.23821c-5.99911,0-9.22772,4.54114-9.6931,13.61797h19.16078v-1.38525c0-3.69218-.77079-6.65355-2.31238-8.88595-1.53432-2.23058-3.91942-3.34677-7.1553-3.34677Z"></path><path class="cls-3" d="M453.16147,173.15824c.45811,1.847,.69081,3.65582,.69081,5.42465,0,1.77246-.23269,3.57947-.69081,5.42465l-13.96883-.23087v30.35366c0,3.54129,1.65793,5.31194,4.96653,5.31194h7.1553c.76352,2.30511,1.14892,4.50115,1.14892,6.5772s-.10907,3.42494-.34177,4.0394c-4.69748,.69081-9.31498,1.03985-13.85248,1.03985-9.23499,0-13.85248-4.69385-13.85248-14.08154v-33.12415l-8.7696,.11453c-.3854-1.53795-.57446-3.34677-.57446-5.42465,0-2.07605,.18906-3.88306,.57446-5.42465l8.7696,.11635v-8.30967c0-3.38495,.61809-5.77187,1.847-7.1553,1.23618-1.38525,3.35223-2.07787,6.34814-2.07787h5.77368l.80715,.69262v16.96474l13.96883-.23087Z"></path><path class="cls-3" d="M460.77488,180.19901c.30541-1.38525,.94531-2.84503,1.90517-4.3848,.95986-1.53795,1.94153-2.69233,2.94502-3.46312,6.2318,.77079,10.50025,4.2321,12.81264,10.38754,2.9232-6.84807,7.80247-10.2712,14.65236-10.2712,2.5378,0,4.85019,.26905,6.92988,.80715,0,5.38647-1.23618,10.08032-3.69399,14.07972-1.15619-.38358-2.93047-.65263-5.3083-.80715-4.46479,0-8.0788,2.3851-10.84929,7.15712v36.81633c-2.31238,.3854-4.79201,.5781-7.44616,.5781s-5.21377-.1927-7.67886-.5781v-38.43427c0-5.461-1.42524-9.42405-4.26845-11.88732Z"></path><path class="cls-3" d="M546.06398,178.12114c5.46828,5.46464,8.19514,13.38891,8.19514,23.77464,0,4.61749-.57446,8.79142-1.73065,12.52541-1.15619,3.73035-2.82867,6.90443-5.01743,9.52222-2.19604,2.61416-4.90836,4.63567-8.13697,6.05728-3.23588,1.42161-6.88625,2.13423-10.96564,2.13423s-7.71521-.71262-10.90747-2.13423c-3.19225-1.42161-5.88276-3.44312-8.0788-6.05728-2.19604-2.61779-3.86851-5.79186-5.01743-9.52222-1.15619-3.73399-1.73065-7.90791-1.73065-12.52541,0-9.3077,2.22512-16.6757,6.68991-22.10034,4.46479-5.42465,10.81293-8.13697,19.04443-8.13697,7.22801,0,13.11804,2.15604,17.65555,6.46267Zm-17.65555,4.84837c-6.7699,0-10.15849,6.30997-10.15849,18.92627,0,12.54358,3.38859,18.81538,10.15849,18.81538,6.84989,0,10.27483-6.27179,10.27483-18.81538,0-12.6163-3.42494-18.92627-10.27483-18.92627Z"></path><path class="cls-3" d="M583.69474,184.93103v45.58957c-1.15619,.22906-2.37056,.3854-3.63582,.46175-1.27254,.07635-2.55962,.11635-3.86851,.11635s-2.59598-.03999-3.86851-.11635c-1.26527-.07635-2.51599-.23269-3.7449-.46175v-40.16492c0-4.23028-1.73065-6.34814-5.19923-6.34814h-1.49796c-.45811-1.69066-.69081-3.4613-.69081-5.3083,0-1.69248,.23269-3.46312,.69081-5.31012,1.76701-.1527,3.40313-.28723,4.90836-.40358,1.49796-.11453,2.78504-.1727,3.86124-.1727h1.96334c3.4613,0,6.17363,1.07802,8.13697,3.23225,1.96334,2.15422,2.94502,5.11742,2.94502,8.88595Zm-17.43013-33.93131c1.76701-.99985,4.31208-1.50159,7.62068-1.50159,1.91971,0,3.47585,.15634,4.67567,.46175,1.18528,.30904,2.05788,.67444,2.59598,1.09802s.87987,1.21073,1.03985,2.3651c.1527,1.15437,.22542,2.34874,.22542,3.57765-.22542,3.92487-.71262,6.07909-1.43979,6.46267-.73444,.38722-3.13408,.77079-7.21347,1.15437-4.31208-.1527-6.82807-.72898-7.56251-1.73065-.72716-.99985-1.09802-2.96138-1.09802-5.8864,0-2.23058,.3854-4.23028,1.15619-6.00092Z"></path><path class="cls-3" d="M629.74606,173.15824c.45811,1.847,.69081,3.65582,.69081,5.42465,0,1.77246-.23269,3.57947-.69081,5.42465l-13.96883-.23087v30.35366c0,3.54129,1.65793,5.31194,4.96653,5.31194h7.1553c.76352,2.30511,1.14892,4.50115,1.14892,6.5772s-.10907,3.42494-.34177,4.0394c-4.69748,.69081-9.31498,1.03985-13.85248,1.03985-9.23499,0-13.85248-4.69385-13.85248-14.08154v-33.12415l-8.7696,.11453c-.3854-1.53795-.57446-3.34677-.57446-5.42465,0-2.07605,.18906-3.88306,.57446-5.42465l8.7696,.11635v-8.30967c0-3.38495,.61809-5.77187,1.847-7.1553,1.23618-1.38525,3.35223-2.07787,6.34814-2.07787h5.77368l.80715,.69262v16.96474l13.96883-.23087Z"></path></g></svg> 